# xmcd
#
# Track frame offsets:
#	150
#	43839
#	85655
#	126636
#	169411
#	211839
#
# Disc length: 3196 seconds
# Revision: 1
# Processed by: cddbd v1.5.2PL0 Copyright (c) Steve Scherf et al.
# Submitted via: dBpowerAMP V12.0
#
DISCID=530c7a06
DTITLE=Lester Levenson - The Ultimate Goal Vol 01 CD 05
DYEAR=1966
DGENRE=Home Study
TTITLE0=Silence, Love and Grace pt 1
TTITLE1=Silence, Love and Grace pt 2
TTITLE2=Silence, Love and Grace pt 3
TTITLE3=Having It All pt 1
TTITLE4=Having It All pt 2
TTITLE5=Having It All pt 3
EXTD=
EXTT0=
EXTT1=
EXTT2=
EXTT3=
EXTT4=
EXTT5=
PLAYORDER=
